<svg id="Calque_1" data-name="Calque 1" xmlns="http://www.w3.org/2000/svg" viewBox="0 0 1440 1051.68"><defs><style>.cls-1{fill:#fff;}.cls-2{fill:#279df0;}.cls-3{fill:#269df0;}</style></defs><path class="cls-1" d="M-42,677.66H1398V1729.34H-42ZM684,925.89a5.16,5.16,0,0,0-1.49.46,95.4,95.4,0,0,0-8.17,6.64q-31.17,30.91-62.2,62c-2.61,2.6-5.18,5.23-7.75,7.86-8.17,8.33-16.72,16.29-24.43,25.07a78.31,78.31,0,0,0-13.66,21.3c-5.46,13-6.72,26.2-2.39,39.79a66.48,66.48,0,0,0,14.54,24.58q14.34,15.81,29.12,31.21c7.22,7.47,14.77,14.62,22.3,21.78a225.82,225.82,0,0,0,23.42,19.81,63,63,0,0,0,9.84,5.9,38.7,38.7,0,0,0,8.7,2.55c2.21.46,3.21-.4,4-2.5,1.13-3,.66-6.08-.22-9a96.55,96.55,0,0,1-3.1-14.95,91.22,91.22,0,0,1-.15-21,107.37,107.37,0,0,1,3.86-18.73,117.37,117.37,0,0,1,6.53-18c5.35-11.56,13.11-21.52,21-31.4,4-5,8.34-9.67,12.26-14.7a127.19,127.19,0,0,0,17.43-29.66,79.7,79.7,0,0,0,5.9-25.55c.37-6.17.77-12.44-.74-18.62-1.18-4.8-1.95-9.7-3-14.53a11.77,11.77,0,0,0-1.48-4c-1.79-2.64-3.74-5.28-7.83-4.39-.11,1.16-.3,2.24-.31,3.34,0,4.15,0,8.31,0,12.47-.07,5.27.21,10.6-.42,15.81a121.43,121.43,0,0,1-4.49,21.52,118.66,118.66,0,0,1-21.77,39.67c-3.12,3.83-6.4,7.55-9.48,11.42a145,145,0,0,0-25.37,51.73c-1.44,5.56-3,11.09-3.06,16.92,0,3.82.41,7.66-.87,11.4a9.37,9.37,0,0,0-.12,2.86c0,1.76,0,3.52,0,5.28,0,.8-.2,1.6-1.41,1.73a8.69,8.69,0,0,1-4-5.51c-1.13-5-2.43-9.92-3.56-14.89a80.66,80.66,0,0,1-2.14-19.47c.07-3.51,0-7,0-10.55a23.25,23.25,0,0,1,.16-3.83c1.33-7.54,2.58-15.07,5.39-22.29,4-10.2,9-19.77,15.93-28.26,3.45-4.21,7.12-8.23,10.4-12.55,7.33-9.68,14.53-19.46,19.78-30.5A136.24,136.24,0,0,0,708.73,994c3.61-12.3,3.77-24.92,3.12-37.55-.38-7.4-4.45-12.83-10.53-16.83a7.64,7.64,0,0,0-1.68-.6c-1.5,1.44-1.13,3.06-.92,4.62,1.7,12.34.51,24.56-2.15,36.6a122.79,122.79,0,0,1-5.85,18.23c-6.65,17-16.86,31.88-28.37,45.87a137.26,137.26,0,0,0-14.17,20.42c-6.78,12.18-10.6,25.32-12.89,38.93a86.54,86.54,0,0,0-1.25,19.1,24.71,24.71,0,0,1-.15,4.3c-.2,1.58-1.47,3.06-2.56,3.14a3.21,3.21,0,0,1-2.77-1.62,17.71,17.71,0,0,1-2.21-3.68,29.22,29.22,0,0,1-1.89-5.93,138.35,138.35,0,0,1-2.55-22.31,127.58,127.58,0,0,1,.87-18.61,109.68,109.68,0,0,1,10-33.36c4.19-8.68,9.75-16.49,15.76-24,6.21-7.73,12.5-15.38,18.08-23.58A105,105,0,0,0,679,972.38c2.33-6.68,3.6-13.54,4.92-20.46s1.35-13.65,1.34-20.52A10.31,10.31,0,0,0,684,925.89Zm.89,269.21c5.53,2.52,10.69,2.89,15.86,1a41.48,41.48,0,0,0,7.72-3.77c4.19-2.64,8.26-5.48,12.26-8.41A326.06,326.06,0,0,0,752.2,1158a343.36,343.36,0,0,0,32.28-34.12c6.92-8.59,13.53-17.43,20.12-26.26a38,38,0,0,0,6.68-13.72,48.3,48.3,0,0,0-2.49-31c-3.72-8.8-9.36-16.36-15.34-23.66-11-13.4-23.84-24.95-36.53-36.66a7.58,7.58,0,0,0-.75-.6,2.34,2.34,0,0,0-3.71,1.48,25.39,25.39,0,0,0-.33,4.28c-.17,9.11-.12,18.21-.42,27.31a104.17,104.17,0,0,1-4.23,24.92c-.35,1.23-.77,2.44-1.23,3.63a140.29,140.29,0,0,1-12.44,24.8c-6.71,10.52-14.46,20.27-22.34,29.91-4.65,5.69-9.33,11.36-13,17.74a108.69,108.69,0,0,0-10.83,24.49c-1.71,6-3.41,12-3.29,18.32a33.34,33.34,0,0,1-.69,5.22c-.23,1.73-.5,3.45-.65,5.19C682.5,1184.67,684.18,1189.72,684.89,1195.1Z" transform="translate(42 -677.66)"/><path class="cls-2" d="M684,925.89a10.31,10.31,0,0,1,1.21,5.51c0,6.87,0,13.68-1.34,20.52s-2.59,13.78-4.92,20.46a105,105,0,0,1-12.38,24.8c-5.58,8.2-11.87,15.85-18.08,23.58-6,7.49-11.57,15.3-15.76,24a109.68,109.68,0,0,0-10,33.36,127.58,127.58,0,0,0-.87,18.61,138.35,138.35,0,0,0,2.55,22.31,29.22,29.22,0,0,0,1.89,5.93,17.71,17.71,0,0,0,2.21,3.68,3.21,3.21,0,0,0,2.77,1.62c1.09-.08,2.36-1.56,2.56-3.14a24.71,24.71,0,0,0,.15-4.3,86.54,86.54,0,0,1,1.25-19.1c2.29-13.61,6.11-26.75,12.89-38.93a137.26,137.26,0,0,1,14.17-20.42c11.51-14,21.72-28.88,28.37-45.87a122.79,122.79,0,0,0,5.85-18.23c2.66-12,3.85-24.26,2.15-36.6-.21-1.56-.58-3.18.92-4.62a7.64,7.64,0,0,1,1.68.6c6.08,4,10.15,9.43,10.53,16.83.65,12.63.49,25.25-3.12,37.55a136.24,136.24,0,0,1-7.86,20.05c-5.25,11-12.45,20.82-19.78,30.5-3.28,4.32-7,8.34-10.4,12.55-7,8.49-12,18.06-15.93,28.26-2.81,7.22-4.06,14.75-5.39,22.29a23.25,23.25,0,0,0-.16,3.83c0,3.52,0,7,0,10.55a80.66,80.66,0,0,0,2.14,19.47c1.13,5,2.43,9.91,3.56,14.89a8.69,8.69,0,0,0,4,5.51c1.21-.13,1.39-.93,1.41-1.73,0-1.76,0-3.52,0-5.28a9.37,9.37,0,0,1,.12-2.86c1.28-3.74.87-7.58.87-11.4,0-5.83,1.62-11.36,3.06-16.92A145,145,0,0,1,689.75,1072c3.08-3.87,6.36-7.59,9.48-11.42A118.66,118.66,0,0,0,721,1020.91a121.43,121.43,0,0,0,4.49-21.52c.63-5.21.35-10.54.42-15.81.06-4.16,0-8.32,0-12.47,0-1.1.2-2.18.31-3.34,4.09-.89,6,1.75,7.83,4.39a11.77,11.77,0,0,1,1.48,4c1,4.83,1.81,9.73,3,14.53,1.51,6.18,1.11,12.45.74,18.62a79.7,79.7,0,0,1-5.9,25.55A127.19,127.19,0,0,1,716,1064.54c-3.92,5-8.29,9.71-12.26,14.7-7.86,9.88-15.62,19.84-21,31.4a117.37,117.37,0,0,0-6.53,18,107.37,107.37,0,0,0-3.86,18.73,91.22,91.22,0,0,0,.15,21,96.55,96.55,0,0,0,3.1,14.95c.88,2.88,1.35,5.94.22,9-.78,2.1-1.78,3-4,2.5a38.7,38.7,0,0,1-8.7-2.55,63,63,0,0,1-9.84-5.9,225.82,225.82,0,0,1-23.42-19.81c-7.53-7.16-15.08-14.31-22.3-21.78q-14.82-15.36-29.12-31.21A66.48,66.48,0,0,1,563.91,1089c-4.33-13.59-3.07-26.8,2.39-39.79a78.31,78.31,0,0,1,13.66-21.3c7.71-8.78,16.26-16.74,24.43-25.07,2.57-2.63,5.14-5.26,7.75-7.86q31.08-31,62.2-62a95.4,95.4,0,0,1,8.17-6.64A5.16,5.16,0,0,1,684,925.89Z" transform="translate(42 -677.66)"/><path class="cls-3" d="M684.89,1195.1c-.71-5.38-2.39-10.43-1.91-15.77.15-1.74.42-3.46.65-5.19a33.34,33.34,0,0,0,.69-5.22c-.12-6.34,1.58-12.35,3.29-18.32a108.69,108.69,0,0,1,10.83-24.49c3.7-6.38,8.38-12,13-17.74,7.88-9.64,15.63-19.39,22.34-29.91a140.29,140.29,0,0,0,12.44-24.8c.46-1.19.88-2.4,1.23-3.63a104.17,104.17,0,0,0,4.23-24.92c.3-9.1.25-18.2.42-27.31a25.39,25.39,0,0,1,.33-4.28,2.34,2.34,0,0,1,3.71-1.48,7.58,7.58,0,0,1,.75.6c12.69,11.71,25.56,23.26,36.53,36.66,6,7.3,11.62,14.86,15.34,23.66a48.3,48.3,0,0,1,2.49,31,38,38,0,0,1-6.68,13.72c-6.59,8.83-13.2,17.67-20.12,26.26A343.36,343.36,0,0,1,752.2,1158a326.06,326.06,0,0,1-31.47,25.86c-4,2.93-8.07,5.77-12.26,8.41a41.48,41.48,0,0,1-7.72,3.77C695.58,1198,690.42,1197.62,684.89,1195.1Z" transform="translate(42 -677.66)"/></svg>